# File created by Blade
# Date/Time:  Thu Jan 22 15:33:01 2015
# Frame Rate: 120.000 fps
#------------------------------------------------------
:FULLY-SPECIFIED
:DEGREES
1634
root 2.451756 17.030295 5.326259 293.350058 -82.111681 -488.048361
RightUpLeg -99.916895 4.602066 -0.949553
RightLeg 5.313552 -0.000000 -0.000000
RightFoot 30.250864 42.787079 -48.758773
RightToeBase -48.145718 -0.000000 0.000000
LeftUpLeg -100.783230 -4.558764 -33.685418
LeftLeg 14.284248 -0.000000 -0.000000
LeftFoot 34.523041 -28.491566 3.720709
LeftToeBase 28.750908 -0.000000 -0.000000
Spine 51.533714 4.773744 -5.609524
RightShoulder -170.529710 31.771367 173.150437
RightArm 158.030665 56.401562 96.326185
RightForeArm 66.401596 -0.000000 103.807667
RightHand 10.541014 -0.000000 -8.609345
RightHandThumb1 -24.326973 -0.000000 -32.862282
LeftShoulder -11.712466 40.186586 18.584287
LeftArm 13.591026 60.639425 -59.796788
LeftForeArm -31.678943 -0.000000 104.300670
LeftHand -29.420250 -0.000000 -2.910025
LeftHandThumb1 -26.253704 0.000000 33.147579
Head 79.331943 -5.762834 -49.384898
1635
root 2.437219 17.012768 5.315384 292.609472 -81.959200 -487.479938
RightUpLeg -99.800023 4.694301 -1.018794
RightLeg 5.354825 -0.000000 -0.000000
RightFoot 30.043708 42.941630 -49.014322
RightToeBase -47.428181 -0.000000 0.000000
LeftUpLeg -100.639044 -4.400856 -33.849953
LeftLeg 14.240155 -0.000000 -0.000000
LeftFoot 34.460510 -28.373971 3.548291
LeftToeBase 28.665188 -0.000000 -0.000000
Spine 51.817272 4.910953 -5.712745
RightShoulder -170.416996 31.624505 173.220285
RightArm 157.929206 56.400295 96.205179
RightForeArm 66.491848 0.000000 103.760822
RightHand 10.558007 -0.000000 -8.499800
RightHandThumb1 -24.326973 -0.000000 -32.862282
LeftShoulder -11.610740 40.109407 18.682537
LeftArm 13.687337 60.663037 -59.677243
LeftForeArm -31.637094 -0.000000 104.310913
LeftHand -29.394483 -0.000000 -2.800316
LeftHandThumb1 -26.253704 0.000000 33.147579
Head 79.363443 -5.917707 -49.331005
1636
root 2.422816 17.002857 5.305107 291.915835 -81.814466 -486.960174
RightUpLeg -99.681794 4.772877 -1.123941
RightLeg 5.364675 -0.000000 -0.000000
RightFoot 30.133686 43.020888 -49.042936
RightToeBase -47.966715 -0.000000 0.000000
LeftUpLeg -100.515571 -4.248016 -33.924505
LeftLeg 14.212586 -0.000000 -0.000000
LeftFoot 34.412525 -28.153719 3.344941
LeftToeBase 28.637937 -0.000000 -0.000000
Spine 52.042692 4.966642 -5.954857
RightShoulder -170.556582 31.557571 173.170561
RightArm 157.924029 56.380369 96.164561
RightForeArm 66.540347 -0.000000 103.736722
RightHand 10.518692 -0.000000 -8.457327
RightHandThumb1 -24.326973 -0.000000 -32.862282
LeftShoulder -11.599625 40.017453 18.839877
LeftArm 13.522854 60.732318 -59.919252
LeftForeArm -31.656279 -0.000000 104.277237
LeftHand -29.416457 -0.000000 -2.789386
LeftHandThumb1 -26.253704 0.000000 33.147579
Head 79.323900 -5.999260 -49.190744
1637
root 2.407222 16.990180 5.296395 291.296755 -81.690234 -486.509996
RightUpLeg -99.562735 4.857001 -1.169461
RightLeg 5.387337 -0.000000 -0.000000
RightFoot 30.073017 43.056493 -49.136731
RightToeBase -47.593862 -0.000000 0.000000
LeftUpLeg -100.380998 -4.102626 -34.028398
LeftLeg 14.167116 -0.000000 -0.000000
LeftFoot 34.328900 -28.200009 3.430885
LeftToeBase 28.846637 -0.000000 -0.000000
Spine 52.288744 5.039684 -6.121681
RightShoulder -170.608286 31.435214 173.134064
RightArm 157.870389 56.380783 96.077465
RightForeArm 66.574395 -0.000000 103.712282
RightHand 10.425184 0.000000 -8.519296
RightHandThumb1 -24.326973 -0.000000 -32.862282
LeftShoulder -11.571271 39.958448 18.941774
LeftArm 13.493356 60.770063 -60.001545
LeftForeArm -31.709209 -0.000000 104.255938
LeftHand -29.520692 -0.000000 -2.687608
LeftHandThumb1 -26.253704 0.000000 33.147579
Head 79.304096 -6.115452 -49.122401
1638
root 2.392503 16.975894 5.287022 290.691798 -81.538422 -486.055888
RightUpLeg -99.444911 4.919297 -1.296093
RightLeg 5.349594 -0.000000 -0.000000
RightFoot 30.234816 43.060606 -48.983882
RightToeBase -47.957207 -0.000000 0.000000
LeftUpLeg -100.250226 -3.964125 -34.177342
LeftLeg 14.119904 -0.000000 -0.000000
LeftFoot 34.248682 -28.253139 3.406392
LeftToeBase 28.953966 -0.000000 -0.000000
Spine 52.529519 5.136827 -6.279160
RightShoulder -170.580471 31.290136 173.160092
RightArm 157.753598 56.406470 95.955264
RightForeArm 66.584800 -0.000000 103.675076
RightHand 10.532228 -0.000000 -8.468458
RightHandThumb1 -24.326973 -0.000000 -32.862282
LeftShoulder -11.495055 39.840277 19.076504
LeftArm 13.404147 60.819103 -60.123478
LeftForeArm -31.789899 -0.000000 104.213237
LeftHand -29.568228 0.000000 -2.689508
LeftHandThumb1 -26.253704 0.000000 33.147579
Head 79.296735 -6.261345 -49.017702
1639
root 2.377888 16.963624 5.274423 290.140820 -81.374417 -485.664307
RightUpLeg -99.314481 4.978381 -1.456125
RightLeg 5.312273 -0.000000 -0.000000
RightFoot 30.111166 43.160429 -49.217114
RightToeBase -47.696682 -0.000000 0.000000
LeftUpLeg -100.119383 -3.823369 -34.346533
LeftLeg 14.076177 -0.000000 -0.000000
LeftFoot 34.129094 -28.204504 3.218593
LeftToeBase 28.923184 -0.000000 -0.000000
Spine 52.750550 5.224099 -6.501315
RightShoulder -170.640172 31.138429 173.154635
RightArm 157.654218 56.410884 95.841334
RightForeArm 66.732793 -0.000000 103.658196
RightHand 10.475471 -0.000000 -8.412685
RightHandThumb1 -24.326973 -0.000000 -32.862282
LeftShoulder -11.412498 39.766425 19.269172
LeftArm 13.262306 60.884458 -60.347679
LeftForeArm -31.775667 0.000000 104.156394
LeftHand -29.511627 -0.000000 -2.664956
LeftHandThumb1 -26.253704 0.000000 33.147579
Head 79.302166 -6.417435 -48.869099
1640
root 2.364362 16.951383 5.259072 289.546129 -81.244958 -485.193356
RightUpLeg -99.237498 5.081572 -1.471318
RightLeg 5.304892 -0.000000 -0.000000
RightFoot 30.245259 43.238655 -49.118069
RightToeBase -47.987932 -0.000000 0.000000
LeftUpLeg -100.043894 -3.683269 -34.483323
LeftLeg 14.042032 -0.000000 -0.000000
LeftFoot 34.001175 -28.340134 3.367877
LeftToeBase 29.106232 -0.000000 -0.000000
Spine 52.946418 5.345560 -6.675027
RightShoulder -170.660976 31.017427 173.177396
RightArm 157.547293 56.430302 95.706249
RightForeArm 66.789386 -0.000000 103.645598
RightHand 10.492644 -0.000000 -8.486438
RightHandThumb1 -24.326973 -0.000000 -32.862282
LeftShoulder -11.369475 39.687704 19.421214
LeftArm 13.249260 60.963577 -60.404737
LeftForeArm -31.798638 -0.000000 104.100015
LeftHand -29.508665 0.000000 -2.658292
LeftHandThumb1 -26.253704 0.000000 33.147579
Head 79.317469 -6.572008 -48.728344
1641
root 2.349067 16.937243 5.248977 289.248675 -81.118701 -485.017474
RightUpLeg -99.128949 5.120325 -1.555637
RightLeg 5.247991 -0.000000 -0.000000
RightFoot 30.149141 43.326321 -49.298810
RightToeBase -48.034323 -0.000000 0.000000
LeftUpLeg -99.940905 -3.587471 -34.603431
LeftLeg 13.969133 -0.000000 -0.000000
LeftFoot 34.069233 -28.306595 3.158928
LeftToeBase 29.097121 -0.000000 -0.000000
Spine 53.156782 5.407558 -6.803654
RightShoulder -170.650872 30.865304 173.188400
RightArm 157.436340 56.472850 95.575319
RightForeArm 66.904629 0.000000 103.653158
RightHand 10.476038 0.000000 -8.611293
RightHandThumb1 -24.326973 -0.000000 -32.862282
LeftShoulder -11.331808 39.594827 19.526437
LeftArm 13.228270 61.027666 -60.452502
LeftForeArm -31.829888 0.000000 104.056461
LeftHand -29.565344 -0.000000 -2.684863
LeftHandThumb1 -26.253704 0.000000 33.147579
Head 79.295492 -6.711634 -48.635224
1642
root 2.340534 16.928417 5.237250 288.914700 -80.968525 -484.661503
RightUpLeg -99.205009 5.172295 -1.759763
RightLeg 5.220526 -0.000000 -0.000000
RightFoot 30.355742 43.245926 -49.005998
RightToeBase -47.831431 -0.000000 0.000000
LeftUpLeg -99.988507 -3.540856 -34.684927
LeftLeg 13.931901 -0.000000 -0.000000
LeftFoot 33.944518 -28.197575 2.925993
LeftToeBase 29.164520 -0.000000 -0.000000
Spine 53.204054 5.625010 -6.776097
RightShoulder -170.329533 30.774277 173.366474
RightArm 157.319666 56.512462 95.436294
RightForeArm 66.982152 0.000000 103.625638
RightHand 10.427044 0.000000 -8.636618
RightHandThumb1 -24.326973 -0.000000 -32.862282
LeftShoulder -10.995149 39.497661 19.763358
LeftArm 13.257083 61.039434 -60.392786
LeftForeArm -31.873929 -0.000000 104.038398
LeftHand -29.535000 -0.000000 -2.650770
LeftHandThumb1 -26.253704 0.000000 33.147579
Head 79.504616 -6.950331 -48.592947
1643
root 2.324144 16.912760 5.224322 288.420536 -80.815874 -484.315770
RightUpLeg -99.078862 5.233488 -1.909478
RightLeg 5.176357 -0.000000 -0.000000
RightFoot 30.338780 43.291357 -49.107708
RightToeBase -47.864204 -0.000000 0.000000
LeftUpLeg -99.858296 -3.399029 -34.827850
LeftLeg 13.851764 -0.000000 -0.000000
LeftFoot 33.909055 -28.280751 2.887045
LeftToeBase 29.238089 -0.000000 -0.000000
Spine 53.447202 5.755410 -6.904476
RightShoulder -170.270084 30.641565 173.412270
RightArm 157.209580 56.559153 95.298484
RightForeArm 67.025464 0.000000 103.621033
RightHand 10.454336 -0.000000 -8.783088
RightHandThumb1 -24.326973 -0.000000 -32.862282
LeftShoulder -10.863271 39.377330 19.940644
LeftArm 13.180173 61.089522 -60.495801
LeftForeArm -31.952154 0.000000 104.025482
LeftHand -29.673840 0.000000 -2.554511
LeftHandThumb1 -26.253704 0.000000 33.147579
Head 79.538932 -7.145938 -48.483967
1644
root 2.307404 16.897907 5.212390 288.048055 -80.698783 -484.061742
RightUpLeg -98.976876 5.291839 -2.008076
RightLeg 5.132682 -0.000000 -0.000000
RightFoot 30.433087 43.283451 -49.087675
RightToeBase -48.006257 -0.000000 0.000000
LeftUpLeg -99.772871 -3.288808 -34.963264
LeftLeg 13.783882 -0.000000 -0.000000
LeftFoot 33.995447 -28.389964 2.833404
LeftToeBase 29.356476 -0.000000 -0.000000
Spine 53.660183 5.837179 -7.048621
RightShoulder -170.286854 30.504145 173.427038
RightArm 157.127807 56.576031 95.203159
RightForeArm 67.093493 0.000000 103.606242
RightHand 10.458343 -0.000000 -8.746895
RightHandThumb1 -24.326973 -0.000000 -32.862282
LeftShoulder -10.835548 39.251993 20.061650
LeftArm 13.073469 61.142132 -60.634328
LeftForeArm -31.995563 0.000000 104.009396
LeftHand -29.676483 0.000000 -2.613457
LeftHandThumb1 -26.253704 0.000000 33.147579
Head 79.525733 -7.312207 -48.381698
1645
root 2.291225 16.881530 5.198330 287.577465 -80.551663 -483.742168
RightUpLeg -98.850568 5.363944 -2.124102
RightLeg 5.111435 -0.000000 -0.000000
RightFoot 30.402856 43.342581 -49.138089
RightToeBase -47.552063 -0.000000 0.000000
LeftUpLeg -99.670161 -3.135797 -35.074947
LeftLeg 13.753981 -0.000000 -0.000000
LeftFoot 33.908801 -28.259126 2.532675
LeftToeBase 29.306798 -0.000000 -0.000000
Spine 53.909315 5.933966 -7.231684
RightShoulder -170.301484 30.324508 173.426373
RightArm 157.001905 56.624160 95.051694
RightForeArm 67.176742 -0.000000 103.571755
RightHand 10.465276 -0.000000 -8.756266
RightHandThumb1 -24.326973 -0.000000 -32.862282
LeftShoulder -10.814181 39.156064 20.187021
LeftArm 13.037157 61.187096 -60.715472
LeftForeArm -32.004086 -0.000000 103.970431
LeftHand -29.679273 -0.000000 -2.584236
LeftHandThumb1 -26.253704 0.000000 33.147579
Head 79.514652 -7.478600 -48.268592
1646
root 2.276237 16.865794 5.181965 286.882299 -80.400436 -483.207503
RightUpLeg -98.725809 5.472231 -2.298867
RightLeg 5.095673 -0.000000 -0.000000
RightFoot 30.902896 43.202946 -48.624226
RightToeBase -48.092550 -0.000000 0.000000
LeftUpLeg -99.573632 -2.944266 -35.177525
LeftLeg 13.721893 -0.000000 -0.000000
LeftFoot 33.869351 -28.245556 2.422076
LeftToeBase 29.407738 -0.000000 -0.000000
Spine 54.163759 6.085337 -7.422008
RightShoulder -170.302437 30.157131 173.454548
RightArm 156.918140 56.632393 94.940234
RightForeArm 67.277309 -0.000000 103.544840
RightHand 10.397715 -0.000000 -8.705948
RightHandThumb1 -24.326973 -0.000000 -32.862282
LeftShoulder -10.774348 39.022021 20.346328
LeftArm 12.940819 61.251783 -60.839176
LeftForeArm -32.122316 -0.000000 103.952894
LeftHand -29.443152 -0.000000 -2.770028
LeftHandThumb1 -26.253704 0.000000 33.147579
Head 79.514546 -7.666424 -48.164196
